<svg width="20" height="21" viewBox="0 0 20 21" fill="none" xmlns="http://www.w3.org/2000/svg">
<path d="M17.7355 18.1458V9.32812H2.26392V18.1458C2.26392 18.9795 2.92041 19.6552 3.73021 19.6552H16.2692C17.079 19.6552 17.7355 18.9795 17.7355 18.1458Z" stroke="#000000" stroke-width="2" stroke-linecap="round" stroke-linejoin="round"/>
<path d="M10 19.655V9.32513" stroke="#000000" stroke-width="2" stroke-linecap="round" stroke-linejoin="round"/>
<path d="M19 6.91191V7.81876C19 8.65237 18.3435 9.32815 17.5337 9.32815H2.46629C1.65649 9.32815 1 8.65237 1 7.81876V6.91191C1 6.07831 1.65649 5.40253 2.46629 5.40253H17.5337C18.3435 5.40253 19 6.07831 19 6.91191Z" stroke="#000000" stroke-width="2" stroke-linecap="round" stroke-linejoin="round"/>
<path d="M10.0002 5.40238C10.0002 4.08166 8.50334 1 6.25807 1C2.60537 1 3.93596 5.40238 5.68424 5.40238" stroke="#000000" stroke-width="2" stroke-linecap="round" stroke-linejoin="round"/>
<path d="M10 5.40238C10 4.08166 11.4968 1 13.7421 1C17.3948 1 16.0642 5.40238 14.3159 5.40238" stroke="#000000" stroke-width="2" stroke-linecap="round" stroke-linejoin="round"/>
</svg>
