<svg width="24" height="32" viewBox="0 0 24 32" fill="none" xmlns="http://www.w3.org/2000/svg">
<path d="M12 32C8.575 32 5.71875 30.7145 3.43125 28.1436C1.14375 25.5726 0 22.3726 0 18.5436C0 16.8479 0.35 15.1521 1.05 13.4564C1.75 11.7607 2.625 10.1333 3.675 8.57436C4.725 7.01538 5.8625 5.55214 7.0875 4.18462C8.3125 2.81709 9.45 1.62735 10.5 0.615385C10.7 0.396581 10.9313 0.239316 11.1938 0.14359C11.4563 0.0478633 11.725 0 12 0C12.275 0 12.5438 0.0478633 12.8063 0.14359C13.0688 0.239316 13.3 0.396581 13.5 0.615385C14.55 1.62735 15.6875 2.81709 16.9125 4.18462C18.1375 5.55214 19.275 7.01538 20.325 8.57436C21.375 10.1333 22.25 11.7607 22.95 13.4564C23.65 15.1521 24 16.8479 24 18.5436C24 22.3726 22.8563 25.5726 20.5688 28.1436C18.2813 30.7145 15.425 32 12 32Z" fill="white"/>
</svg>
