<svg width="20" height="20" viewBox="0 0 20 20" fill="none" xmlns="http://www.w3.org/2000/svg">
<g id="Gift 2">
<g id="gift-2--reward-box-social-present-gift-media-rating-bow">
<path id="Vector" d="M16.1241 16.4488V9.46809H3.87573V16.4488C3.87573 17.1087 4.39545 17.6437 5.03655 17.6437H14.9632C15.6044 17.6437 16.1241 17.1087 16.1241 16.4488Z" stroke="black" stroke-width="2" stroke-linecap="round" stroke-linejoin="round"/>
<path id="Vector 2239" d="M10 17.6436V9.46575" stroke="black" stroke-width="2" stroke-linecap="round" stroke-linejoin="round"/>
<path id="Vector_2" d="M17.125 7.55528V8.27321C17.125 8.93315 16.6053 9.46814 15.9642 9.46814H4.03582C3.39472 9.46814 2.875 8.93315 2.875 8.27321V7.55528C2.875 6.89535 3.39472 6.36036 4.03582 6.36036H15.9642C16.6053 6.36036 17.125 6.89535 17.125 7.55528Z" stroke="black" stroke-width="2" stroke-linecap="round" stroke-linejoin="round"/>
<path id="Vector_3" d="M10.0002 6.36021C10.0002 5.31465 8.81524 2.875 7.03774 2.875C4.14602 2.875 5.1994 6.36021 6.58346 6.36021" stroke="black" stroke-width="2" stroke-linecap="round" stroke-linejoin="round"/>
<path id="Vector_4" d="M10 6.36021C10 5.31465 11.185 2.875 12.9625 2.875C15.8542 2.875 14.8008 6.36021 13.4168 6.36021" stroke="black" stroke-width="2" stroke-linecap="round" stroke-linejoin="round"/>
</g>
</g>
</svg>
