<svg width="44" height="44" viewBox="0 0 44 44" fill="none" xmlns="http://www.w3.org/2000/svg">
<g id="Help-Chat-1--Streamline-Flex 1" clip-path="url(#clip0_235_2281)">
<g id="Help-Chat-1--Streamline-Flex.svg">
<path id="Subtract" fill-rule="evenodd" clip-rule="evenodd" d="M22 0.785767C17.2135 0.785767 12.5306 1.0372 8.04575 1.50862C6.42334 1.6667 4.90032 2.36251 3.71871 3.48546C2.53711 4.60841 1.76473 6.09407 1.52433 7.70634C0.551362 14.5225 0.540783 21.4415 1.4929 28.2606C1.99261 31.8466 5.00033 34.3955 8.46061 34.7192L9.14575 34.7821L9.8529 34.8449V41.646C9.85315 41.908 9.91889 42.1657 10.0441 42.3958C10.1694 42.6259 10.3502 42.821 10.57 42.9634C10.7899 43.1058 11.0419 43.191 11.303 43.2112C11.5642 43.2315 11.8263 43.1861 12.0655 43.0792C16.4812 41.0992 19.1526 39.1758 22.374 35.5678C26.8421 35.5421 31.3061 35.2966 35.75 34.8323C37.4203 34.6703 38.988 33.9527 40.2022 32.7943C41.4165 31.6359 42.207 30.1037 42.4475 28.4429C42.9434 25.0436 43.1997 21.6136 43.2143 18.1783C43.2143 14.6269 42.9409 11.1446 42.4632 7.80377C42.2225 6.16917 41.4415 4.66218 40.2448 3.523C39.0481 2.38381 37.5045 1.678 35.86 1.51805C31.2558 1.0352 26.6296 0.790778 22 0.785767ZM22.5375 10.7392C22.1402 10.6682 21.7324 10.6842 21.3419 10.7861C20.9515 10.888 20.5878 11.0734 20.2759 11.3294C19.964 11.5854 19.7114 11.906 19.5353 12.2691C19.3593 12.6322 19.2641 13.0292 19.2563 13.4326C19.2563 13.9536 19.0494 14.4532 18.681 14.8216C18.3126 15.19 17.813 15.3969 17.292 15.3969C16.7711 15.3969 16.2715 15.19 15.9031 14.8216C15.5347 14.4532 15.3278 13.9536 15.3278 13.4326C15.3278 9.26834 19.2218 6.07519 23.3043 6.88605C25.9129 7.40462 28.028 9.52605 28.5466 12.1283C28.8075 13.4389 28.6566 14.6835 28.0878 15.8023C27.5378 16.8835 26.6672 17.7101 25.7086 18.3481C24.8412 18.9295 24.3729 19.2721 24.0995 19.5549C24.051 19.6056 24.0068 19.6603 23.9675 19.7183C23.9662 20.2393 23.7581 20.7384 23.3888 21.1059C23.0196 21.4734 22.5194 21.6792 21.9985 21.6779C21.4775 21.6767 20.9784 21.4685 20.6109 21.0992C20.2434 20.73 20.0376 20.2299 20.0389 19.7089C20.0389 18.4832 20.5763 17.5529 21.2678 16.8332C21.8869 16.1921 22.726 15.6201 23.5275 15.0826C24.1183 14.6866 24.4326 14.3252 24.5866 14.0203C24.7544 13.6698 24.7922 13.2711 24.6935 12.8952C24.5769 12.3678 24.312 11.8846 23.93 11.5027C23.548 11.1207 23.0649 10.8558 22.5375 10.7392ZM23.9643 26.9029C23.9643 26.3819 23.7574 25.8823 23.389 25.5139C23.0206 25.1456 22.521 24.9386 22 24.9386C21.4791 24.9386 20.9795 25.1456 20.6111 25.5139C20.2427 25.8823 20.0358 26.3819 20.0358 26.9029V27.7672C20.0358 28.2882 20.2427 28.7878 20.6111 29.1562C20.9795 29.5245 21.4791 29.7315 22 29.7315C22.521 29.7315 23.0206 29.5245 23.389 29.1562C23.7574 28.7878 23.9643 28.2882 23.9643 27.7672V26.9029Z" fill="#456EFF"/>
</g>
</g>
<defs>
<clipPath id="clip0_235_2281">
<rect width="44" height="44" fill="white"/>
</clipPath>
</defs>
</svg>
