<svg width="7" height="13" viewBox="0 0 7 13" fill="none" xmlns="http://www.w3.org/2000/svg">
<path d="M0.724951 11.8C0.541618 11.6167 0.449951 11.3833 0.449951 11.1C0.449951 10.8167 0.541618 10.5833 0.724951 10.4L4.62495 6.49999L0.724951 2.59999C0.541618 2.41665 0.449951 2.18332 0.449951 1.89999C0.449951 1.61665 0.541618 1.38332 0.724951 1.19999C0.908285 1.01665 1.14162 0.924988 1.42495 0.924988C1.70828 0.924988 1.94162 1.01665 2.12495 1.19999L6.72495 5.79999C6.82495 5.89999 6.89578 6.00832 6.93745 6.12499C6.97912 6.24165 6.99995 6.36665 6.99995 6.49999C6.99995 6.63332 6.97912 6.75832 6.93745 6.87499C6.89578 6.99165 6.82495 7.09999 6.72495 7.19999L2.12495 11.8C1.94162 11.9833 1.70828 12.075 1.42495 12.075C1.14162 12.075 0.908285 11.9833 0.724951 11.8Z" fill="black"/>
</svg>
