<svg width="25" height="25" viewBox="0 0 25 25" fill="none" xmlns="http://www.w3.org/2000/svg">
<path d="M13.2925 4.78572C13.9985 2.78825 15.9035 1.35715 18.1426 1.35715C18.2415 1.35715 18.3396 1.35993 18.437 1.36542C17.7305 1.99344 17.2856 2.90904 17.2856 3.92858C17.2856 5.82212 18.8206 7.35715 20.7141 7.35715C21.7337 7.35715 22.6493 6.91214 23.2773 6.20576C23.2827 6.30315 23.2855 6.40124 23.2855 6.5C23.2855 8.73926 21.8544 10.6442 19.8569 11.3502" stroke="black" stroke-width="2" stroke-linecap="round" stroke-linejoin="round"/>
<path d="M19 15.0714C18.0729 15.0727 17.171 15.3733 16.4286 15.9286C16.4286 14.4029 15.9761 12.9114 15.1285 11.6428C14.2808 10.3741 13.076 9.38539 11.6664 8.80151C10.2568 8.21764 8.70573 8.06486 7.20931 8.36253C5.71288 8.66018 4.33833 9.39489 3.25946 10.4738C2.18061 11.5526 1.44589 12.9272 1.14823 14.4236C0.850574 15.92 1.00334 17.4711 1.58722 18.8808C2.1711 20.2902 3.15985 21.495 4.42847 22.3428C5.69707 23.1905 7.18855 23.6429 8.71429 23.6429H19C20.1366 23.6429 21.2267 23.1913 22.0305 22.3877C22.8342 21.5838 23.2857 20.4937 23.2857 19.3572C23.2857 18.2206 22.8342 17.1304 22.0305 16.3267C21.2267 15.523 20.1366 15.0714 19 15.0714Z" stroke="black" stroke-width="2" stroke-linecap="round" stroke-linejoin="round"/>
</svg>
