<svg width="24" height="25" viewBox="0 0 24 25" fill="none" xmlns="http://www.w3.org/2000/svg">
<g clip-path="url(#clip0_235_2166)">
<path d="M15.4999 23.7501V20.0111L16.5069 20.1791C16.9368 20.2507 17.377 20.2278 17.7971 20.112C18.2172 19.9962 18.607 19.7903 18.9394 19.5086C19.2719 19.2269 19.539 18.8761 19.7221 18.4807C19.9052 18.0853 20.0001 17.6548 19.9999 17.2191V14.7611L20.9349 14.5271C21.1681 14.4687 21.3838 14.3552 21.5639 14.1961C21.744 14.037 21.8832 13.8369 21.9699 13.6127C22.0565 13.3886 22.088 13.1469 22.0618 12.908C22.0355 12.6691 21.9522 12.44 21.8189 12.2401L19.9999 9.51105V8.76105C19.9999 4.33505 15.5209 0.800052 10.1819 1.30005C8.2794 1.47285 6.48131 2.24695 5.04822 3.51016C3.61513 4.77338 2.62149 6.46009 2.21127 8.32589C1.80106 10.1917 1.99559 12.1396 2.76667 13.8875C3.53775 15.6353 4.84533 17.0922 6.49992 18.0471V23.7471" stroke="black" stroke-width="2" stroke-linecap="round" stroke-linejoin="round"/>
<path d="M8.57202 8.75004C8.57213 8.20007 8.72341 7.66071 9.00934 7.19091C9.29528 6.72111 9.70485 6.33895 10.1933 6.08619C10.6818 5.83344 11.2303 5.71982 11.7789 5.75776C12.3276 5.79569 12.8553 5.98372 13.3043 6.30129C13.7533 6.61886 14.1064 7.05375 14.325 7.55843C14.5435 8.06311 14.6191 8.61816 14.5436 9.16291C14.468 9.70766 14.2441 10.2212 13.8964 10.6473C13.5487 11.0734 13.0905 11.3957 12.572 11.579C12.2794 11.6825 12.0262 11.8741 11.847 12.1275C11.6679 12.381 11.5719 12.6837 11.572 12.994V13.25" stroke="black" stroke-width="2" stroke-linecap="round" stroke-linejoin="round"/>
<path d="M11.572 17C11.3649 17 11.197 16.8321 11.197 16.625C11.197 16.4179 11.3649 16.25 11.572 16.25" stroke="black" stroke-width="2"/>
<path d="M11.572 17C11.7791 17 11.947 16.8321 11.947 16.625C11.947 16.4179 11.7791 16.25 11.572 16.25" stroke="black" stroke-width="2"/>
</g>
<defs>
<clipPath id="clip0_235_2166">
<rect width="24" height="24" fill="white" transform="translate(0 0.5)"/>
</clipPath>
</defs>
</svg>
