<svg width="25" height="25" viewBox="0 0 25 25" fill="none" xmlns="http://www.w3.org/2000/svg">
<path d="M8.12685 4.36574L7.45827 4.52002C7.51882 4.78352 7.5264 5.05644 7.48054 5.32289C7.43469 5.58934 7.33632 5.84402 7.19115 6.07212C7.04601 6.30022 6.85695 6.49719 6.63501 6.65158C6.41306 6.80597 6.16262 6.91471 5.89827 6.97145C5.36223 7.08422 4.80336 6.98216 4.34175 6.68726C3.88015 6.39235 3.55267 5.9281 3.4297 5.39431L2.09256 5.66859C1.90918 5.7086 1.73583 5.78537 1.58296 5.89426C1.43009 6.00315 1.30088 6.14191 1.20314 6.30214C1.1054 6.46238 1.04116 6.64075 1.0143 6.82651C0.987434 7.01225 0.998506 7.20152 1.04685 7.38288C1.04685 7.38288 1.66399 10.2457 2.38399 13.4686" stroke="black" stroke-width="2" stroke-linecap="round" stroke-linejoin="round"/>
<path d="M20.9841 4.34858C20.8818 4.63723 20.7217 4.90208 20.5139 5.12708C20.3061 5.35208 20.0548 5.53256 19.7752 5.65757C19.4956 5.78258 19.1934 5.84952 18.8872 5.85434C18.5809 5.85915 18.2769 5.80174 17.9936 5.68558C17.71 5.56944 17.4532 5.39695 17.2384 5.1786C17.0236 4.96023 16.8554 4.70055 16.7439 4.41526C16.6325 4.12997 16.5801 3.82502 16.5899 3.5189C16.5998 3.21276 16.6717 2.91182 16.8013 2.63429L15.4127 1.98286C15.042 1.82834 14.6252 1.82628 14.2529 1.97712C13.8806 2.12797 13.5828 2.41954 13.4242 2.78858L7.66416 16.3486L6.90988 18.0629C6.75537 18.4337 6.75329 18.8505 6.90413 19.2226C7.05499 19.595 7.34656 19.8927 7.71559 20.0515L14.6756 23.0172C15.0464 23.1717 15.4631 23.1737 15.8354 23.0229C16.2077 22.872 16.5055 22.5804 16.6642 22.2115L23.1784 6.88572C23.3221 6.52934 23.326 6.13188 23.1892 5.77277C23.0526 5.41364 22.7855 5.11932 22.4413 4.94858L20.9841 4.34858Z" stroke="black" stroke-width="2" stroke-linecap="round" stroke-linejoin="round"/>
</svg>
