<svg width="16" height="16" viewBox="0 0 16 16" fill="none" xmlns="http://www.w3.org/2000/svg">
<path fill-rule="evenodd" clip-rule="evenodd" d="M12.0502 0.337121C10.8948 0.407978 9.6822 0.617121 8.99649 0.750836C8.51649 0.84455 8.0822 1.06855 7.72449 1.38512C5.38727 3.45643 3.1613 5.64998 1.05592 7.95655C0.127918 8.97369 0.073061 10.5108 0.877632 11.6068C1.34963 12.2503 1.86392 12.9165 2.47306 13.5268C3.08335 14.136 3.74963 14.6503 4.39306 15.1223C5.4902 15.9268 7.02735 15.872 8.04335 14.944C10.3499 12.8386 12.5435 10.6126 14.6148 8.27541C14.9365 7.916 15.1556 7.47664 15.2491 7.00341C15.3828 6.31769 15.5919 5.10626 15.6628 3.94969C15.7042 3.39372 15.6935 2.83509 15.6308 2.28112C15.5668 1.80112 15.4251 1.27084 15.0776 0.922264C14.7291 0.573693 14.1976 0.433121 13.7176 0.369121C13.1644 0.30651 12.6066 0.295797 12.0513 0.337121H12.0502ZM11.8422 6.51541C12.0016 6.36164 12.1288 6.17764 12.2164 5.97416C12.3039 5.77068 12.35 5.5518 12.352 5.3303C12.354 5.1088 12.3119 4.88913 12.228 4.6841C12.1442 4.47907 12.0204 4.2928 11.8637 4.13617C11.7071 3.97954 11.5208 3.85569 11.3158 3.77185C11.1108 3.68801 10.8911 3.64586 10.6696 3.64786C10.4481 3.64987 10.2292 3.69598 10.0257 3.78352C9.82226 3.87105 9.63826 3.99826 9.48449 4.15769C9.18112 4.47224 9.01336 4.89332 9.01731 5.3303C9.02127 5.76729 9.19661 6.18526 9.50562 6.49427C9.81463 6.80328 10.2326 6.97863 10.6696 6.98258C11.1066 6.98653 11.5277 6.81878 11.8422 6.51541Z" fill="#000000"/>
</svg>
