<svg width="24" height="24" viewBox="0 0 24 24" fill="none" xmlns="http://www.w3.org/2000/svg">
<g id="keyboard_backspace">
<mask id="mask0_1899_989" style="mask-type:alpha" maskUnits="userSpaceOnUse" x="0" y="0" width="24" height="24">
<rect id="Bounding box" x="24" y="24" width="24" height="24" transform="rotate(-180 24 24)" fill="#D9D9D9"/>
</mask>
<g mask="url(#mask0_1899_989)">
<path id="keyboard_backspace_2" d="M17.2 11L14.3 8.09995C14.1166 7.91662 14.025 7.68328 14.025 7.39995C14.025 7.11662 14.1166 6.88328 14.3 6.69995C14.4833 6.51662 14.7166 6.42495 15 6.42495C15.2833 6.42495 15.5166 6.51662 15.7 6.69995L20.3 11.3C20.4 11.4 20.4708 11.5083 20.5125 11.625C20.5541 11.7416 20.575 11.8666 20.575 12C20.575 12.1333 20.5541 12.2583 20.5125 12.375C20.4708 12.4916 20.4 12.6 20.3 12.7L15.7 17.3C15.5166 17.4833 15.2833 17.575 15 17.575C14.7166 17.575 14.4833 17.4833 14.3 17.3C14.1166 17.1166 14.025 16.8833 14.025 16.6C14.025 16.3166 14.1166 16.0833 14.3 15.9L17.2 13L3.99995 13C3.71662 13 3.47912 12.9041 3.28745 12.7125C3.09578 12.5208 2.99995 12.2833 2.99995 12C2.99995 11.7166 3.09578 11.4791 3.28745 11.2875C3.47912 11.0958 3.71662 11 3.99995 11L17.2 11Z" fill="#B6B6B6"/>
</g>
</g>
</svg>
