<svg width="19" height="14" viewBox="0 0 19 14" fill="none" xmlns="http://www.w3.org/2000/svg">
<path d="M6.14167 13.5042C5.98611 13.5042 5.84028 13.4797 5.70417 13.4307C5.56806 13.3825 5.44167 13.3 5.325 13.1833L0.308334 8.16667C0.0944454 7.95279 -0.00783244 7.67551 0.00150089 7.33484C0.011612 6.99495 0.123612 6.71806 0.3375 6.50417C0.551389 6.29029 0.823612 6.18334 1.15417 6.18334C1.48472 6.18334 1.75694 6.29029 1.97083 6.50417L6.14167 10.675L16.0292 0.787508C16.2431 0.573619 16.5203 0.466675 16.861 0.466675C17.2009 0.466675 17.4778 0.573619 17.6917 0.787508C17.9056 1.0014 18.0125 1.27829 18.0125 1.61817C18.0125 1.95884 17.9056 2.23612 17.6917 2.45001L6.95833 13.1833C6.84167 13.3 6.71528 13.3825 6.57917 13.4307C6.44306 13.4797 6.29722 13.5042 6.14167 13.5042Z" fill="black"/>
</svg>
